<?xml version="1.0" encoding="UTF-8" standalone="no"?>
<!-- Created with Inkscape (http://www.inkscape.org/) -->

<svg
   xmlns:dc="http://purl.org/dc/elements/1.1/"
   xmlns:cc="http://creativecommons.org/ns#"
   xmlns:rdf="http://www.w3.org/1999/02/22-rdf-syntax-ns#"
   xmlns:svg="http://www.w3.org/2000/svg"
   xmlns="http://www.w3.org/2000/svg"
   xmlns:sodipodi="http://sodipodi.sourceforge.net/DTD/sodipodi-0.dtd"
   xmlns:inkscape="http://www.inkscape.org/namespaces/inkscape"
   width="297mm"
   height="210mm"
   viewBox="0 0 1052.3622 744.09448"
   id="svg2"
   version="1.1"
   inkscape:version="0.91 r13725"
   sodipodi:docname="berlino.svg">
  <defs
     id="defs4">
    <linearGradient
       x1="-195.5"
       y1="883.57"
       gradientTransform="translate(614.36411,-525.90676)"
       x2="-195.5"
       gradientUnits="userSpaceOnUse"
       y2="1106.1"
       id="linearGradient2856">
      <stop
         offset="0"
         style="stop-color:#000033"
         id="stop3182" />
      <stop
         offset=".59760"
         style="stop-color:#0100d8"
         id="stop3188" />
      <stop
         offset="1"
         style="stop-color:#f2abf1"
         id="stop3184" />
    </linearGradient>
  </defs>
  <sodipodi:namedview
     id="base"
     pagecolor="#ffffff"
     bordercolor="#666666"
     borderopacity="1.0"
     inkscape:pageopacity="0.0"
     inkscape:pageshadow="2"
     inkscape:zoom="0.82291059"
     inkscape:cx="660.46058"
     inkscape:cy="372.04724"
     inkscape:document-units="px"
     inkscape:current-layer="layer1"
     showgrid="false"
     inkscape:window-width="1440"
     inkscape:window-height="851"
     inkscape:window-x="0"
     inkscape:window-y="1"
     inkscape:window-maximized="1" />
  <metadata
     id="metadata7">
    <rdf:RDF>
      <cc:Work
         rdf:about="">
        <dc:format>image/svg+xml</dc:format>
        <dc:type
           rdf:resource="http://purl.org/dc/dcmitype/StillImage" />
        <dc:title></dc:title>
      </cc:Work>
    </rdf:RDF>
  </metadata>
  <g
     inkscape:label="Livello 1"
     inkscape:groupmode="layer"
     id="layer1"
     transform="translate(0,-308.26772)">
    <g
       id="g3499"
       transform="matrix(1.5983511,0,0,1.5983511,-110.69369,-532.1895)">
      <path
         d="m 485.00727,567.39652 0,0.0187 c -0.24207,0.0261 -0.47846,0.10355 -0.72227,0.22457 l 0,16.16859 -0.13979,0.84212 -0.18644,31.32746 -0.60577,3.53692 0.11647,26.96697 -0.30302,2.73219 0,6.2878 -0.87308,3.65731 -5.57085,0 0,1.49139 0.92855,0 0,18.64293 -0.92855,0 -0.40603,1.37796 c -5.90398,2.54936 -9.92563,7.56668 -9.92563,13.32427 0,6.88957 6.19111,12.56705 14.04576,14.38122 -0.011,0.85877 0.011,1.37816 0,2.23718 l -1.85706,0 0,2.23718 1.85706,0 0,0.74572 -1.85706,0 0,2.23719 1.85706,0 c -0.72504,48.54343 -3.58373,97.94158 -5.65777,146.37346 -0.0283,-0.0304 5.02757,-0.0304 10.22863,-0.0189 0.0342,1.5e-4 0.059,0 0.0931,0 5.20106,-0.0144 10.25678,-0.0144 10.22863,0.0189 -2.07404,-48.43768 -4.88289,-97.83582 -5.6078,-146.37346 l 1.85705,0 0,-2.23719 -1.85705,0 0,-0.74572 1.85705,0 0,-2.23718 -1.85705,0 c -0.011,-0.85903 0.011,-1.37842 0,-2.23718 7.85465,-1.81432 13.9958,-7.49165 13.9958,-14.38122 0,-5.75759 -4.02166,-10.77491 -9.92563,-13.32427 l -0.35607,-1.37796 -0.92849,0 0,-18.64293 0.92849,0 0,-1.49139 -5.57085,0 -0.92316,-3.65731 0,-6.2878 -0.30285,-2.73219 0.11647,-26.96697 -0.60584,-3.53692 -0.18644,-31.32746 -0.13979,-0.84212 0,-16.16859 c -0.24392,-0.12102 -0.48025,-0.19852 -0.72233,-0.22457 l 0,-0.0187 c -0.008,2.6e-4 -0.0163,-4e-4 -0.0234,0 -0.0142,-10e-4 -0.0315,8e-4 -0.0466,0 -0.008,-4e-4 -0.0163,2.6e-4 -0.0234,0 z"
         style="fill:#6c5353;fill-rule:evenodd"
         id="Fernsehturm"
         inkscape:connector-curvature="0" />
      <path
         d="m 150.41159,798.61474 q 13.11641,4.44266 13.11641,19.35729 0,20.09772 -28.98303,20.09772 l -61.033617,0 0,-76.58291 61.879837,0 q 11.63552,0 18.2995,5.71199 6.66399,5.71198 6.66399,15.23196 0,10.47197 -9.94309,16.18395 z m -14.80885,-5.07732 q 5.28888,0 8.77953,-2.96177 3.59644,-3.06754 3.59644,-7.40442 0,-4.65421 -3.17333,-7.40443 -3.17332,-2.75021 -8.67375,-2.75021 l -49.926977,0 0,20.52083 49.398087,0 z m -0.952,33.00259 q 15.86663,0 15.86663,-10.3662 0,-11.10664 -13.85685,-11.10664 l -50.455867,0 0,21.47284 48.446087,0 z"
         id="path3478"
         inkscape:connector-curvature="0"
         style="font-style:normal;font-variant:normal;font-weight:500;font-stretch:normal;font-size:medium;line-height:125%;font-family:'BlairMdITC TT';-inkscape-font-specification:'BlairMdITC TT, Medium';text-align:start;letter-spacing:0px;word-spacing:0px;writing-mode:lr-tb;text-anchor:start;fill:#6c5353;fill-opacity:1;stroke:none;stroke-width:1px;stroke-linecap:butt;stroke-linejoin:miter;stroke-opacity:1" />
      <path
         d="m 265.6661,838.06975 -80.17935,0 0,-76.58291 77.21758,0 0,11.52975 -64.52428,0 0,19.56884 44.84966,0 0,11.52974 -44.84966,0 0,22.42484 67.48605,0 0,11.52974 z"
         id="path3480"
         inkscape:connector-curvature="0"
         style="font-style:normal;font-variant:normal;font-weight:500;font-stretch:normal;font-size:medium;line-height:125%;font-family:'BlairMdITC TT';-inkscape-font-specification:'BlairMdITC TT, Medium';text-align:start;letter-spacing:0px;word-spacing:0px;writing-mode:lr-tb;text-anchor:start;fill:#6c5353;fill-opacity:1;stroke:none;stroke-width:1px;stroke-linecap:butt;stroke-linejoin:miter;stroke-opacity:1" />
      <path
         d="m 371.7031,838.06975 -14.70308,0 -20.73239,-29.19459 -38.71456,0 0,29.19459 -12.6933,0 0,-76.58291 60.39895,0 q 12.05864,0 18.93417,6.55821 6.87554,6.45242 6.87554,17.55906 0,9.73153 -5.60621,15.65507 -5.18309,5.50043 -14.27996,6.98132 l 20.52084,29.82925 z m -28.34837,-40.72434 q 14.70307,0 14.70307,-11.7413 0,-12.58752 -15.86663,-12.58752 l -44.6381,0 0,24.32882 45.80166,0 z"
         id="path3482"
         inkscape:connector-curvature="0"
         style="font-style:normal;font-variant:normal;font-weight:500;font-stretch:normal;font-size:medium;line-height:125%;font-family:'BlairMdITC TT';-inkscape-font-specification:'BlairMdITC TT, Medium';text-align:start;letter-spacing:0px;word-spacing:0px;writing-mode:lr-tb;text-anchor:start;fill:#6c5353;fill-opacity:1;stroke:none;stroke-width:1px;stroke-linecap:butt;stroke-linejoin:miter;stroke-opacity:1" />
      <path
         d="m 463.28657,838.06975 -71.82292,0 0,-76.58291 12.6933,0 0,65.05317 59.12962,0 0,11.52974 z"
         id="path3484"
         inkscape:connector-curvature="0"
         style="font-style:normal;font-variant:normal;font-weight:500;font-stretch:normal;font-size:medium;line-height:125%;font-family:'BlairMdITC TT';-inkscape-font-specification:'BlairMdITC TT, Medium';text-align:start;letter-spacing:0px;word-spacing:0px;writing-mode:lr-tb;text-anchor:start;fill:#6c5353;fill-opacity:1;stroke:none;stroke-width:1px;stroke-linecap:butt;stroke-linejoin:miter;stroke-opacity:1" />
      <path
         d="m 603.40375,838.06975 -15.65507,0 -58.60073,-62.83183 0,62.83183 -12.6933,0 0,-76.58291 15.76084,0 58.49496,62.83184 0,-62.83184 12.6933,0 0,76.58291 z"
         id="path3488"
         inkscape:connector-curvature="0"
         style="font-style:normal;font-variant:normal;font-weight:500;font-stretch:normal;font-size:medium;line-height:125%;font-family:'BlairMdITC TT';-inkscape-font-specification:'BlairMdITC TT, Medium';text-align:start;letter-spacing:0px;word-spacing:0px;writing-mode:lr-tb;text-anchor:start;fill:#6c5353;fill-opacity:1;stroke:none;stroke-width:1px;stroke-linecap:butt;stroke-linejoin:miter;stroke-opacity:1" />
      <path
         d="m 723.40339,799.67252 q 0,18.8284 -15.44351,30.46392 -13.53952,10.15464 -33.63725,10.15464 -20.30928,0 -33.8488,-10.26042 -15.44352,-11.63552 -15.44352,-30.35814 0,-18.40529 15.65508,-30.25237 13.75107,-10.36619 33.63724,-10.36619 19.99195,0 33.53147,10.36619 15.54929,11.84708 15.54929,30.25237 z m -13.22218,0 q 0,-13.43374 -11.42397,-21.79017 -9.83731,-7.19287 -24.43461,-7.19287 -15.9724,0 -26.02126,8.25065 -10.04887,8.14487 -10.04887,20.73239 0,13.01063 9.83731,21.04972 9.83731,7.93332 26.23282,7.93332 16.28974,0 26.02127,-8.03909 9.83731,-8.03909 9.83731,-20.94395 z"
         id="path3490"
         inkscape:connector-curvature="0"
         style="font-style:normal;font-variant:normal;font-weight:500;font-stretch:normal;font-size:medium;line-height:125%;font-family:'BlairMdITC TT';-inkscape-font-specification:'BlairMdITC TT, Medium';text-align:start;letter-spacing:0px;word-spacing:0px;writing-mode:lr-tb;text-anchor:start;fill:#6c5353;fill-opacity:1;stroke:none;stroke-width:1px;stroke-linecap:butt;stroke-linejoin:miter;stroke-opacity:1" />
    </g>
  </g>
</svg>
